<svg width="195" height="458" viewBox="0 0 195 458" fill="none" xmlns="http://www.w3.org/2000/svg">
<path d="M355.466 152.6L296.346 37.2152C293.749 32.1592 289.789 27.9252 284.864 24.9372C279.939 21.9502 274.221 20.3132 268.285 20.1932L131.791 18.0072C125.85 17.8862 119.898 19.2882 114.535 22.0722C109.172 24.8562 104.586 28.9232 101.239 33.8662L23.8637 147.065C20.5196 152.003 18.5291 157.64 18.0917 163.412C17.6544 169.183 18.7856 174.885 21.372 179.947L80.4918 295.332C83.0898 300.387 87.0489 304.621 91.9749 307.609C96.8999 310.597 102.617 312.233 108.553 312.354L245.047 314.539C250.989 314.66 256.941 313.258 262.304 310.475C267.667 307.691 272.253 303.623 275.6 298.68L352.974 185.481C356.318 180.543 358.309 174.906 358.746 169.135C359.184 163.363 358.052 157.661 355.466 152.6Z" stroke="#2AD883" stroke-opacity="0.15" stroke-width="35" stroke-linecap="round" stroke-linejoin="round"/>
<path d="M287.256 342.927L251.759 273.648C250.2 270.612 247.822 268.07 244.865 266.276C241.908 264.482 238.475 263.5 234.911 263.427L152.957 262.115C149.39 262.042 145.816 262.884 142.596 264.556C139.376 266.227 136.623 268.669 134.613 271.637L88.155 339.604C86.148 342.569 84.952 345.954 84.69 349.419C84.427 352.884 85.106 356.308 86.659 359.347L122.156 428.626C123.716 431.662 126.093 434.204 129.05 435.998C132.008 437.792 135.44 438.774 139.004 438.847L220.958 440.159C224.526 440.232 228.099 439.39 231.319 437.718C234.54 436.047 237.293 433.605 239.303 430.637L285.76 362.67C287.768 359.705 288.963 356.32 289.226 352.855C289.488 349.39 288.809 345.966 287.256 342.927Z" stroke="#2AD883" stroke-opacity="0.15" stroke-width="35" stroke-linecap="round" stroke-linejoin="round"/>
</svg>
