<svg width="425" height="1330" viewBox="0 0 425 1330" fill="none" xmlns="http://www.w3.org/2000/svg">
<g clip-path="url(#clip0_2_2)">
<g clip-path="url(#clip1_2_2)">
<path d="M417.832 211.683C120.195 280.558 -134.781 183.312 -397.147 -66.998H-508L-474.473 1539H714.271H1975L1920.17 343.198H1854.14C1847.39 369.904 1602.44 263.356 1447.93 194.631C1093.43 73.104 932 93.616 417.832 211.683Z" fill="#2BD984"/>
<path d="M12.5 322C77.9457 322 131 266.483 131 198C131 129.517 77.9457 74 12.5 74C-52.9457 74 -106 129.517 -106 198C-106 266.483 -52.9457 322 12.5 322Z" fill="#76EAB1" fill-opacity="0.35"/>
<path d="M504.513 314.646L481.999 266.087C481.01 263.959 479.502 262.177 477.626 260.92C475.75 259.662 473.573 258.974 471.313 258.923L419.334 258.003C417.071 257.952 414.804 258.542 412.762 259.714C410.72 260.885 408.973 262.597 407.699 264.677L378.233 312.317C376.96 314.395 376.202 316.768 376.035 319.196C375.869 321.625 376.299 324.025 377.284 326.155L399.798 374.715C400.787 376.842 402.295 378.624 404.171 379.882C406.046 381.139 408.224 381.828 410.484 381.878L462.463 382.798C464.726 382.849 466.992 382.259 469.035 381.087C471.077 379.916 472.823 378.204 474.098 376.124L503.564 328.484C504.837 326.406 505.595 324.034 505.762 321.605C505.928 319.176 505.497 316.776 504.513 314.646Z" stroke="#76EAB1" stroke-opacity="0.3" stroke-width="20" stroke-linecap="round" stroke-linejoin="round"/>
<mask id="mask0_2_2" style="mask-type:luminance" maskUnits="userSpaceOnUse" x="297" y="24" width="339" height="360">
<path d="M455.3 24.9992L297 225.957L476.842 383.089L635.142 182.131L455.3 24.9992Z" fill="white"/>
</mask>
<g mask="url(#mask0_2_2)">
<path d="M542.431 154.875L482.484 102.498C479.853 100.204 476.661 98.7244 473.228 98.2064C469.795 97.6884 466.242 98.1494 462.924 99.5444L386.78 131.968C383.459 133.365 380.492 135.648 378.176 138.587C375.861 141.527 374.278 145.02 373.588 148.715L357.391 233.516C356.702 237.207 356.927 240.971 358.045 244.428C359.163 247.886 361.133 250.917 363.759 253.216L423.706 305.593C426.337 307.886 429.529 309.366 432.962 309.885C436.395 310.403 439.948 309.942 443.266 308.546L519.41 276.123C522.731 274.726 525.698 272.443 528.014 269.504C530.329 266.564 531.912 263.071 532.602 259.376L548.799 174.575C549.488 170.883 549.263 167.12 548.145 163.662C547.027 160.205 545.057 157.174 542.431 154.875Z" stroke="#76EAB1" stroke-opacity="0.3" stroke-width="20" stroke-linecap="round" stroke-linejoin="round"/>
</g>
</g>
</g>
<defs>
<clipPath id="clip0_2_2">
<rect width="425" height="1330" fill="white"/>
</clipPath>
<clipPath id="clip1_2_2">
<rect width="3634" height="1562" fill="white" transform="translate(-594 -67)"/>
</clipPath>
</defs>
</svg>
