<svg width="375" height="1330" viewBox="0 0 375 1330" fill="none" xmlns="http://www.w3.org/2000/svg">
<g clip-path="url(#clip0_8_35)">
<mask id="mask0_8_35" style="mask-type:luminance" maskUnits="userSpaceOnUse" x="0" y="0" width="424" height="1330">
<path d="M423.87 0H0V1330H423.87V0Z" fill="white"/>
</mask>
<g mask="url(#mask0_8_35)">
<mask id="mask1_8_35" style="mask-type:luminance" maskUnits="userSpaceOnUse" x="-593" y="-67" width="3625" height="1562">
<path d="M3031.92 -67H-592.42V1495H3031.92V-67Z" fill="white"/>
</mask>
<g mask="url(#mask1_8_35)">
<path d="M416.721 211.683C119.875 280.558 -134.423 183.312 -396.091 -66.998H-506.649L-473.211 1539H712.371H1969.75L1915.06 343.198H1849.21C1842.48 369.904 1598.18 263.356 1444.08 194.631C1090.52 73.104 929.521 93.616 416.721 211.683Z" fill="#2BD984"/>
<path d="M12.4668 322C77.7384 322 130.652 266.483 130.652 198C130.652 129.517 77.7384 74 12.4668 74C-52.8049 74 -105.718 129.517 -105.718 198C-105.718 266.483 -52.8049 322 12.4668 322Z" fill="#76EAB1" fill-opacity="0.35"/>
<path d="M446.171 300.646L423.717 252.087C422.73 249.959 421.227 248.177 419.356 246.92C417.485 245.662 415.313 244.974 413.059 244.923L361.219 244.003C358.962 243.952 356.701 244.542 354.664 245.714C352.627 246.885 350.885 248.597 349.614 250.677L320.227 298.317C318.957 300.395 318.201 302.768 318.035 305.196C317.869 307.625 318.298 310.025 319.28 312.155L341.734 360.715C342.721 362.842 344.225 364.624 346.096 365.882C347.966 367.139 350.138 367.828 352.392 367.878L404.233 368.798C406.49 368.849 408.75 368.259 410.787 367.087C412.824 365.916 414.565 364.204 415.837 362.124L445.225 314.484C446.494 312.406 447.25 310.034 447.417 307.605C447.582 305.176 447.152 302.776 446.171 300.646Z" stroke="#76EAB1" stroke-opacity="0.3" stroke-width="20" stroke-linecap="round" stroke-linejoin="round"/>
</g>
</g>
<path d="M482.938 150.875L423.15 98.498C420.526 96.204 417.342 94.7244 413.919 94.2064C410.495 93.6884 406.951 94.1494 403.642 95.5444L327.7 127.968C324.388 129.365 321.429 131.648 319.119 134.587C316.811 137.527 315.232 141.02 314.544 144.715L298.39 229.516C297.702 233.207 297.927 236.971 299.042 240.428C300.157 243.886 302.122 246.917 304.741 249.216L364.528 301.593C367.152 303.886 370.336 305.366 373.76 305.885C377.184 306.403 380.727 305.942 384.036 304.546L459.978 272.123C463.29 270.726 466.249 268.443 468.559 265.504C470.868 262.564 472.446 259.071 473.135 255.376L489.289 170.575C489.976 166.883 489.751 163.12 488.636 159.662C487.521 156.205 485.557 153.174 482.938 150.875Z" stroke="#76EAB1" stroke-opacity="0.3" stroke-width="20" stroke-linecap="round" stroke-linejoin="round"/>
</g>
<defs>
<clipPath id="clip0_8_35">
<rect width="375" height="1330" fill="white"/>
</clipPath>
</defs>
</svg>
