<svg width="958" height="1166" viewBox="0 0 958 1166" fill="none" xmlns="http://www.w3.org/2000/svg">
<path d="M848.674 943.961L948.093 486.794C952.428 466.746 950.464 445.704 942.398 425.777C934.333 405.85 920.449 387.74 902.141 373.263L479.687 41.9994C461.36 27.5083 439.245 17.1683 415.565 12.0185C391.884 6.86875 367.472 7.09068 344.783 12.662L-177.09 138.565C-199.757 144.13 -219.908 154.839 -235.52 169.617C-251.133 184.394 -261.659 202.721 -266.042 222.758L-365.461 679.925C-369.795 699.972 -367.831 721.015 -359.766 740.942C-351.7 760.869 -337.817 778.979 -319.508 793.456L102.946 1124.72C121.272 1139.21 143.387 1149.55 167.068 1154.7C190.748 1159.85 215.16 1159.63 237.849 1154.06L759.723 1028.15C782.39 1022.59 802.54 1011.88 818.153 997.102C833.766 982.325 844.291 963.998 848.674 943.961Z" stroke="white" stroke-width="15" stroke-linecap="round" stroke-linejoin="round"/>
</svg>
