<svg width="717" height="1052" viewBox="0 0 717 1052" fill="none" xmlns="http://www.w3.org/2000/svg">
<path d="M1281.51 611.081L1221.54 199.562C1218.89 181.526 1210.07 165.047 1195.97 151.78C1181.87 138.512 1162.98 128.922 1141.21 123.971L639.664 12.0077C617.867 7.05203 593.94 6.91966 570.29 11.6238C546.64 16.328 524.099 25.703 504.934 38.8065L63.362 338.362C44.2153 351.452 29.1104 367.803 19.5628 385.775C10.0153 403.746 6.36065 422.706 8.96563 440.752L68.9377 852.271C71.5912 870.307 80.4103 886.786 94.5105 900.053C108.611 913.321 127.496 922.911 149.272 927.862L650.816 1039.83C672.613 1044.78 696.539 1044.91 720.19 1040.21C743.84 1035.5 766.381 1026.13 785.546 1013.03L1227.12 713.471C1246.26 700.381 1261.37 684.029 1270.92 666.058C1280.46 648.087 1284.12 629.127 1281.51 611.081Z" stroke="white" stroke-width="15" stroke-linecap="round" stroke-linejoin="round"/>
</svg>
