<svg width="489" height="618" viewBox="0 0 489 618" fill="none" xmlns="http://www.w3.org/2000/svg">
<g clip-path="url(#clip0_457_24)">
<path d="M467.12 30.8032L266.865 -225.122C258.072 -236.331 245.814 -244.506 231.322 -248.827C216.83 -253.149 200.613 -253.465 184.298 -249.744L-190.667 -162.653C-206.998 -158.928 -222.853 -151.289 -236.637 -140.503C-250.421 -129.718 -261.649 -116.166 -269.192 -101.21L-443.902 241.806C-451.438 256.747 -455.031 272.564 -454.322 287.67C-453.612 302.776 -448.625 316.64 -439.86 327.871L-239.605 583.796C-230.812 595.005 -218.554 603.181 -204.062 607.502C-189.57 611.824 -173.353 612.14 -157.038 608.418L217.927 521.328C234.258 517.603 250.113 509.964 263.897 499.178C277.681 488.392 288.909 474.84 296.452 459.884L471.162 116.869C478.698 101.928 482.291 86.1102 481.582 71.0042C480.872 55.8982 475.885 42.0342 467.12 30.8032Z" stroke="white" stroke-width="13" stroke-linecap="round" stroke-linejoin="round"/>
</g>
<defs>
<clipPath id="clip0_457_24">
<rect width="489" height="618" fill="white"/>
</clipPath>
</defs>
</svg>
