<svg width="838" height="1231" viewBox="0 0 838 1231" fill="none" xmlns="http://www.w3.org/2000/svg">
<path d="M1296.49 416.927L1008.18 48.467C995.52 32.3288 978.073 20.4019 957.588 13.8829C937.103 7.36395 914.301 6.48211 891.468 11.3258L366.766 124.864C343.911 129.712 321.832 140.127 302.746 155.061C283.66 169.995 268.241 188.922 258.038 209.94L21.6464 691.938C11.4539 712.935 6.82609 735.28 8.22728 756.732C9.62847 778.183 17.0094 797.987 29.6295 814.156L317.94 1182.62C330.599 1198.75 348.046 1210.68 368.531 1217.2C389.016 1223.72 411.818 1224.6 434.65 1219.76L959.353 1106.22C982.207 1101.37 1004.29 1090.96 1023.37 1076.02C1042.46 1061.09 1057.88 1042.16 1068.08 1021.14L1304.47 539.145C1314.66 518.147 1319.29 495.802 1317.89 474.351C1316.49 452.899 1309.11 433.096 1296.49 416.927Z" stroke="white" stroke-width="15" stroke-linecap="round" stroke-linejoin="round"/>
</svg>
