<svg width="118" height="119" viewBox="0 0 118 119" fill="none" xmlns="http://www.w3.org/2000/svg">
<g clip-path="url(#clip0_594_44)">
<path d="M74.2205 34.7514L18.9843 49.5805C17.8193 49.9135 16.7635 50.5484 15.9221 51.4219C15.0806 52.2954 14.4828 53.3771 14.188 54.5594C13.8933 55.7417 13.9119 56.9833 14.2421 58.1608C14.5723 59.3383 15.2024 60.4106 16.0699 61.271L58.5997 102.543C59.4856 103.384 60.5733 103.979 61.7544 104.268C62.9355 104.557 64.169 104.53 65.3321 104.191C66.4952 103.851 67.5473 103.21 68.3839 102.332C69.2204 101.454 69.8122 100.369 70.1003 99.1845L82.8068 43.0837C83.0653 41.9123 83.0189 40.6913 82.6721 39.5386C82.3252 38.3859 81.6896 37.3403 80.8266 36.5029C79.9637 35.6654 78.9024 35.0643 77.7452 34.7575C76.5881 34.4507 75.3741 34.4486 74.2205 34.7514Z" stroke="#033B4A" stroke-opacity="0.94" stroke-width="7" stroke-linecap="round" stroke-linejoin="round"/>
</g>
<defs>
<clipPath id="clip0_594_44">
<rect width="83.9622" height="83.3554" fill="white" transform="matrix(0.717641 0.696413 -0.691737 0.72215 57.6602 0)"/>
</clipPath>
</defs>
</svg>
