<svg width="1007" height="1117" viewBox="0 0 1007 1117" fill="none" xmlns="http://www.w3.org/2000/svg">
<path d="M1342.68 528.909L1158.29 98.9237C1150.19 80.0825 1136.37 64.087 1118.24 52.5414C1100.11 40.996 1078.29 34.3067 1054.98 33.1442L518.693 8.58728C495.359 7.42337 471.349 11.8396 449.076 21.3905C426.803 30.9413 407.053 45.2908 391.81 62.9967L39.9134 468.425C24.6857 486.113 14.4923 506.529 10.3555 527.625C6.21903 548.72 8.28465 569.753 16.3454 588.614L200.731 1018.6C208.84 1037.44 222.651 1053.43 240.785 1064.98C258.919 1076.53 280.736 1083.22 304.046 1084.38L840.331 1108.94C863.665 1110.1 887.677 1105.69 909.945 1096.13C932.221 1086.58 951.973 1072.23 967.214 1054.52L1319.11 649.097C1334.33 631.407 1344.53 610.992 1348.67 589.897C1352.8 568.802 1350.74 547.769 1342.68 528.909Z" stroke="#F5F6F9" stroke-width="15" stroke-linecap="round" stroke-linejoin="round"/>
</svg>
